<svg xmlns="http://www.w3.org/2000/svg" viewBox="0 0 480 360" role="img" aria-labelledby="title desc">
  <title id="title">Illustrazione astratta marketing futuristico</title>
  <desc id="desc">Forme geometriche sovrapposte con gradiente arancione e teal che evocano crescita digitale.</desc>
  <defs>
    <linearGradient id="glow" x1="0%" x2="100%" y1="0%" y2="100%">
      <stop offset="0%" stop-color="#FF6B35" />
      <stop offset="50%" stop-color="#FF9F6E" />
      <stop offset="100%" stop-color="#00ADB5" />
    </linearGradient>
    <radialGradient id="pulse" cx="50%" cy="50%" r="65%">
      <stop offset="0%" stop-color="rgba(255,255,255,0.9)" />
      <stop offset="40%" stop-color="rgba(0,173,181,0.6)" />
      <stop offset="100%" stop-color="rgba(10,10,15,0)" />
    </radialGradient>
    <filter id="softBlur" x="-20%" y="-20%" width="140%" height="140%">
      <feGaussianBlur stdDeviation="12" />
    </filter>
  </defs>
  <rect width="480" height="360" fill="none" />
  <g filter="url(#softBlur)" opacity="0.6">
    <circle cx="150" cy="120" r="120" fill="#00ADB5" />
    <circle cx="340" cy="220" r="140" fill="#FF6B35" />
  </g>
  <g opacity="0.85">
    <path d="M62 262c40-94 136-162 214-152s128 118 108 194c-20 76-118 90-206 70S22 356 62 262z" fill="url(#glow)" />
    <path d="M95 88c32-42 112-66 172-52s100 70 86 118c-14 48-86 72-148 58s-142-82-110-124z" fill="rgba(0,173,181,0.35)" />
    <path d="M308 40c34 10 72 46 86 88s4 86-32 116c-36 30-98 42-148 30-50-12-84-48-72-86 12-38 82-70 124-96s48-62 42-52z" fill="rgba(255,107,53,0.35)" />
  </g>
  <g fill="none" stroke="url(#glow)" stroke-width="6" stroke-linecap="round" opacity="0.8">
    <path d="M88 284c52 40 124 60 188 46s114-58 140-118" />
    <path d="M76 136c36-54 108-94 176-94s132 36 164 94" opacity="0.7" />
  </g>
  <circle cx="240" cy="180" r="110" fill="url(#pulse)" opacity="0.6" />
  <g fill="#0A0A0F" opacity="0.8">
    <path d="M206 150h120l-18 96h-84z" fill="rgba(10,10,15,0.75)" />
    <path d="M154 204h112l-16 80H170z" fill="rgba(10,10,15,0.65)" />
  </g>
  <g fill="none" stroke="#FFFFFF" stroke-opacity="0.6">
    <path d="M170 210c28 26 68 36 108 28 40-8 76-32 102-68" stroke-width="3" />
    <path d="M186 126c22-26 64-38 100-30 36 8 66 34 82 66" stroke-width="2" stroke-dasharray="6 10" />
  </g>
  <g fill="#FFFFFF">
    <circle cx="164" cy="98" r="6" fill="#FFB88A" />
    <circle cx="356" cy="104" r="5" fill="#7CF1F6" />
    <circle cx="312" cy="268" r="7" fill="#FF6B35" />
    <circle cx="196" cy="292" r="5" fill="#00ADB5" />
  </g>
</svg>
